<?xml version="1.0" encoding="utf-8"?>
<!-- Generator: Adobe Illustrator 16.0.0, SVG Export Plug-In . SVG Version: 6.00 Build 0)  -->
<!DOCTYPE svg PUBLIC "-//W3C//DTD SVG 1.1//EN" "http://www.w3.org/Graphics/SVG/1.1/DTD/svg11.dtd">
<svg version="1.1" id="Layer_1" xmlns="http://www.w3.org/2000/svg" xmlns:xlink="http://www.w3.org/1999/xlink" x="0px" y="0px"
	 width="1080px" height="346.304px" viewBox="0 0 1080 346.304" enable-background="new 0 0 1080 346.304" xml:space="preserve">
<g>
	<g>
		<path fill="#5A3FDA" d="M351.451,36.065c-0.591-0.476-1.179-0.946-1.769-1.414C350.271,35.115,350.862,35.592,351.451,36.065"/>
		<path fill="#74DDFF" d="M395.617,198.794c-0.093-0.014-0.155-0.026-0.24-0.042c0.073-0.23,0.176-0.904,0.247-1.242
			c-30.29-5.761-63.316-17.229-96.099-34.446c-46.303-24.319-83.506-55.536-106.73-86.707c-2.572,3.646-5.01,7.392-7.258,11.265
			h-10.085c-0.008,0.014-0.018,0.029-0.026,0.044H28.135h-2.904h-0.55c-10.455,1.061-18.604,9.596-18.604,19.976
			c0,10.915,9.021,19.778,20.255,20.062h1.1c0.299-0.014,0.598-0.024,0.896-0.044h7.026h2.89h131.107
			c-1.347,5.466-2.383,11.053-3.125,16.734h-10.105c-0.001,0.013-0.003,0.029-0.003,0.029l-69.181,0.013h-3.055h-0.598
			c-11.028,1.063-19.623,9.598-19.623,19.977c0,10.917,9.516,19.78,21.363,20.063h1.161c0.314-0.015,0.63-0.024,0.945-0.044h6.869
			h3.046h69.181c0.742,5.68,1.778,11.266,3.125,16.733h-10.12c0.003,0.015,0.005,0.028,0.008,0.043h-34.473h-3.05h-0.599
			c-11.029,1.06-19.628,9.598-19.628,19.977c0,10.916,9.516,19.777,21.363,20.062h1.161c0.314-0.013,0.63-0.023,0.945-0.043h6.869
			h3.047h50.662c23.107,39.803,63.601,68.231,111.096,74.894C351.076,272.984,381.446,233.766,395.617,198.794"/>
		<path fill="#FF005E" d="M311.924,158.44c29.126,15.297,58.444,26.049,85.868,32.3C431.995,90.511,333.439,26.748,299.227,8.1
			c-40,5.532-75.051,26.509-98.969,56.723C222.947,98.252,262.198,132.325,311.924,158.44"/>
		<path fill="#FF005E" d="M407.218,192.728c0.049,0.008,0.097,0.021,0.146,0.029c25.66-71.734-16.708-125.008-55.912-156.691
			c-0.59-0.475-1.18-0.951-1.768-1.414c-0.004-0.004-0.007-0.006-0.007-0.006c-7.729-6.097-15.266-11.337-22.076-15.712
			C369.604,46.107,438.262,105.89,407.218,192.728"/>
		<path fill="#FF005E" d="M326.618,18.304c0.282,0.182,0.559,0.357,0.845,0.542C327.18,18.665,326.898,18.484,326.618,18.304"/>
		<path fill="#5A3FDA" d="M296.632,316.097c-0.24,0.189-0.471,0.378-0.711,0.567c2.935,0.229,5.894,0.376,8.874,0.438
			c0.037-0.027,0.072-0.058,0.108-0.085C302.125,316.782,299.366,316.48,296.632,316.097"/>
		<g opacity="0.7">
			<g>
				<defs>
					<rect id="SVGID_1_" x="295.921" y="316.097" width="8.981" height="1.006"/>
				</defs>
				<clipPath id="SVGID_2_">
					<use xlink:href="#SVGID_1_"  overflow="visible"/>
				</clipPath>
				<path clip-path="url(#SVGID_2_)" fill="#8B4D79" d="M296.632,316.097c-0.24,0.189-0.471,0.378-0.711,0.567
					c2.935,0.229,5.894,0.376,8.874,0.438c0.037-0.027,0.072-0.058,0.108-0.085C302.125,316.782,299.366,316.48,296.632,316.097"/>
			</g>
		</g>
		<path fill="#74DDFF" d="M404.94,199.125c-3.073-0.474-6.182-1.019-9.316-1.614c-0.071,0.337-0.176,1.012-0.247,1.242
			c0.084,0.014,0.147,0.026,0.24,0.042c-14.173,34.97-44.541,74.188-98.985,117.301c2.733,0.385,5.492,0.685,8.271,0.924
			C359.921,273.677,390.597,234.263,404.94,199.125"/>
		<g opacity="0.9">
			<g>
				<defs>
					<rect id="SVGID_3_" x="296.632" y="197.51" width="108.308" height="119.508"/>
				</defs>
				<clipPath id="SVGID_4_">
					<use xlink:href="#SVGID_3_"  overflow="visible"/>
				</clipPath>
				<path clip-path="url(#SVGID_4_)" fill="#6D38BD" d="M404.94,199.125c-3.073-0.474-6.182-1.019-9.316-1.614
					c-0.071,0.337-0.176,1.012-0.247,1.242c0.084,0.014,0.147,0.026,0.24,0.042c-14.173,34.97-44.541,74.188-98.985,117.301
					c2.733,0.385,5.492,0.685,8.271,0.924C359.921,273.677,390.597,234.263,404.94,199.125"/>
			</g>
		</g>
		<path fill="#5A3FDA" d="M327.462,18.846c0.045,0.028,0.092,0.059,0.139,0.089C327.555,18.904,327.508,18.876,327.462,18.846"/>
		<g opacity="0.3">
			<g>
				<defs>
					<rect id="SVGID_5_" x="327.462" y="18.846" width="0.139" height="0.09"/>
				</defs>
				<clipPath id="SVGID_6_">
					<use xlink:href="#SVGID_5_"  overflow="visible"/>
				</clipPath>
				<path clip-path="url(#SVGID_6_)" fill="#FFFF00" d="M327.462,18.846c0.045,0.028,0.092,0.059,0.139,0.089
					C327.555,18.904,327.508,18.876,327.462,18.846"/>
			</g>
		</g>
		<path fill="#5A3FDA" d="M326.618,18.304c-8.37-5.367-15.625-9.417-20.72-12.09c-3.107,0.071-6.188,0.247-9.247,0.5
			c0.808,0.429,1.675,0.896,2.576,1.386c2.751-0.38,5.525-0.693,8.322-0.927C312.417,9.754,319.036,13.478,326.618,18.304"/>
		<g opacity="0.3">
			<g>
				<defs>
					<rect id="SVGID_7_" x="296.651" y="6.212" width="29.966" height="12.093"/>
				</defs>
				<clipPath id="SVGID_8_">
					<use xlink:href="#SVGID_7_"  overflow="visible"/>
				</clipPath>
				<path clip-path="url(#SVGID_8_)" fill="#FFFF00" d="M326.618,18.304c-8.37-5.367-15.625-9.417-20.72-12.09
					c-3.107,0.071-6.188,0.247-9.247,0.5c0.808,0.429,1.675,0.896,2.576,1.386c2.751-0.38,5.525-0.693,8.322-0.927
					C312.417,9.754,319.036,13.478,326.618,18.304"/>
			</g>
		</g>
		<path fill="#FF005E" d="M397.792,190.741c3.168,0.722,6.312,1.387,9.425,1.987c31.043-86.838-37.614-146.622-79.617-173.792
			c-0.045-0.031-0.093-0.061-0.139-0.09c-0.286-0.184-0.563-0.36-0.845-0.541c-7.581-4.826-14.202-8.551-19.069-11.131
			c-2.796,0.231-5.571,0.545-8.324,0.926C333.439,26.748,431.995,90.511,397.792,190.741"/>
		<g opacity="0.3">
			<g>
				<defs>
					<rect id="SVGID_9_" x="299.227" y="7.174" width="115.805" height="185.554"/>
				</defs>
				<clipPath id="SVGID_10_">
					<use xlink:href="#SVGID_9_"  overflow="visible"/>
				</clipPath>
				<path clip-path="url(#SVGID_10_)" fill="#FFFF00" d="M397.792,190.741c3.168,0.722,6.312,1.387,9.425,1.987
					c31.043-86.838-37.614-146.622-79.617-173.792c-0.045-0.031-0.093-0.061-0.139-0.09c-0.286-0.184-0.563-0.36-0.845-0.541
					c-7.581-4.826-14.202-8.551-19.069-11.131c-2.796,0.231-5.571,0.545-8.324,0.926C333.439,26.748,431.995,90.511,397.792,190.741
					"/>
			</g>
		</g>
		<path fill="#4E17A4" d="M312.311,317.083c-0.211,0.007-0.424,0.005-0.635,0.01c-0.012,0.01-0.025,0.021-0.037,0.03
			c0.862,0.013,1.719,0.044,2.584,0.044c1.659,0,3.31-0.032,4.957-0.084c54.542-1.736,101.858-31.996,127.601-76.339h-6.869
			C414.169,285.087,366.853,315.347,312.311,317.083"/>
		<path fill="#5617AE" d="M514.893,240.562c11.407-0.703,20.422-9.183,20.422-19.568s-9.015-18.868-20.422-19.569l-42.01-0.72
			h-6.869h-3.046h-2.941h-3.929c0.022-0.087-1.172,0.09-1.15,0c-4.668,0.519-8.327,0.525-13.335,0.619
			c-9.488,0.177-19.533-0.373-30.019-1.682c-1.952-0.242-3.92-0.517-5.901-0.809c-0.2-0.031-0.395-0.053-0.596-0.084
			c-0.051,0.125-0.105,0.251-0.156,0.376c-14.343,35.138-45.019,74.552-100.039,117.893c-0.036,0.027-0.071,0.058-0.106,0.085
			c-0.011,0.007-0.017,0.016-0.025,0.021c0.86,0.014,1.719,0.042,2.582,0.042c1.448,0,2.886-0.031,4.325-0.073
			c0.211-0.005,0.424-0.003,0.635-0.01c54.542-1.736,101.858-31.996,127.601-76.339h6.869h3.046h6.87h57.531
			c0.505,0.031,1.01,0.071,1.524,0.071s1.018-0.04,1.522-0.071c0.548-0.034,1.085-0.104,1.622-0.175
			c-0.061-0.003-0.121-0.005-0.183-0.008H514.893z"/>
		<path fill="#FFA60F" d="M458.389,195.843c-4.702,0.525-9.604,0.806-14.648,0.901c7.519,0.137,14.739-0.142,21.558-0.901
			c1.321-5.447,2.349-11.009,3.082-16.664h-6.908C460.737,184.834,459.71,190.396,458.389,195.843"/>
		<path fill="#FFA60F" d="M461.512,139.355h6.869C458.752,65.624,396.735,8.399,320.896,6.262c-1.46-0.04-2.915-0.101-4.384-0.101
			c-1.202,0-2.396,0.025-3.591,0.053c0.016,0.006,0.032,0.017,0.048,0.023c0.352,0.013,0.705,0.016,1.058,0.025
			C389.866,8.399,451.883,65.624,461.512,139.355"/>
		<path fill="#FFA60F" d="M502.157,159.375c0,10.625-9.015,19.3-20.422,20.02h3.823c0.507,0.033,1.01,0.069,1.524,0.069
			c0.516,0,1.017-0.036,1.522-0.069c11.407-0.72,20.422-9.395,20.422-20.02c0-10.624-9.012-19.299-20.415-20.02
			c-0.507-0.032-1.012-0.071-1.529-0.071c-0.516,0-1.021,0.039-1.527,0.071h-3.813C493.146,140.076,502.157,148.75,502.157,159.375"
			/>
		<path fill="#FFBC0F" d="M351.451,36.065c39.203,31.683,81.572,84.957,55.911,156.69c-0.161,0.451-0.303,0.895-0.469,1.347
			c13.011,1.989,25.416,2.862,36.989,2.643c5.015-0.094,9.889-0.373,14.563-0.89c1.314-5.382,2.335-10.875,3.065-16.461h6.869h3.046
			h6.869h0.393c0.507,0.031,1.01,0.07,1.524,0.07c0.516,0,1.017-0.039,1.522-0.07c11.407-0.72,20.422-9.395,20.422-20.021
			c0-10.622-9.012-19.297-20.415-20.018c-0.507-0.034-1.012-0.071-1.529-0.071c-0.516,0-1.019,0.037-1.527,0.071h-0.39h-6.869
			h-3.046h-6.869C451.883,65.623,389.866,8.399,314.026,6.263c-0.351-0.011-0.706-0.014-1.058-0.025
			c-1.106-0.034-2.209-0.078-3.325-0.078c-1.202,0-2.396,0.025-3.591,0.052c9.385,4.926,26.074,14.502,43.622,28.432
			c0,0,0.005,0.003,0.008,0.007C350.272,35.119,350.86,35.589,351.451,36.065"/>
		<path fill="#4E17A4" d="M521.762,201.424c-0.014-0.001-0.025-0.001-0.039-0.001c-0.492-0.03-0.982-0.068-1.484-0.068
			c-0.515,0-1.021,0.038-1.527,0.069h-3.819c11.407,0.701,20.422,9.184,20.422,19.569s-9.015,18.867-20.422,19.568h3.822
			c0.062,0.005,0.122,0.005,0.183,0.008c0.445,0.028,0.89,0.062,1.342,0.062c0.514,0,1.017-0.038,1.523-0.069
			c11.407-0.701,20.421-9.183,20.421-19.568S533.169,202.125,521.762,201.424"/>
		<path fill="#5A3FDA" d="M308.037,328.236c-39.843,0-72.144,2.478-72.144,5.533c0,3.059,32.3,5.535,72.144,5.535
			c39.843,0,72.143-2.477,72.143-5.535C380.18,330.713,347.88,328.236,308.037,328.236"/>
		<g opacity="0.5">
			<g>
				<defs>
					<rect id="SVGID_11_" x="235.895" y="328.236" width="144.286" height="11.068"/>
				</defs>
				<clipPath id="SVGID_12_">
					<use xlink:href="#SVGID_11_"  overflow="visible"/>
				</clipPath>
				<path clip-path="url(#SVGID_12_)" fill="#5A3F97" d="M308.037,328.236c-39.843,0-72.144,2.478-72.144,5.533
					c0,3.059,32.3,5.535,72.144,5.535c39.843,0,72.143-2.477,72.143-5.535C380.18,330.713,347.88,328.236,308.037,328.236"/>
			</g>
		</g>
	</g>
	
		<text transform="matrix(1 0 0 1 508.6553 227.7261)" display="none" fill="#FFFFFF" font-family="'Multicolore'" font-size="118.8933">kitec</text>
	<g display="none">
		<defs>
			<rect id="SVGID_13_" width="1080" height="346.304"/>
		</defs>
		<clipPath id="SVGID_14_" display="inline">
			<use xlink:href="#SVGID_13_"  overflow="visible"/>
		</clipPath>
		<g display="inline" opacity="0.3" clip-path="url(#SVGID_14_)">
			<g>
				<defs>
					<rect id="SVGID_15_" x="858.435" y="210.073" width="53.095" height="34.214"/>
				</defs>
				<clipPath id="SVGID_16_">
					<use xlink:href="#SVGID_15_"  overflow="visible"/>
				</clipPath>
				<g clip-path="url(#SVGID_16_)">
					<text transform="matrix(1 0 0 1 858.4336 237.5005)" fill="#FFFFFF" font-family="'GeosansLight'" font-size="32.0044">App</text>
				</g>
			</g>
		</g>
	</g>
</g>
<g>
	<g>
		<path fill="#FFFFFF" d="M720.346,139.408h-41.957L652.01,172.22l-3.532,4.67V92.16c0,0-0.518-17.905-17.964-17.905
			c-17.728,0-17.036,17.905-17.036,17.905v159.598h35v-31.981l9.867-9.865l24.51,41.847h40.089l-41.957-66.145L720.346,139.408z
			 M762.72,98.004c-3.601-3.203-8.274-4.805-14.021-4.805c-5.748,0-10.422,1.602-14.021,4.805
			c-3.601,3.204-5.399,7.315-5.399,12.328c0,5.015,1.799,9.125,5.399,12.328c3.599,3.203,8.272,4.806,14.021,4.806
			c5.746,0,10.42-1.603,14.021-4.806c3.599-3.204,5.399-7.313,5.399-12.328C768.119,105.319,766.318,101.208,762.72,98.004z
			 M731.354,251.758h35.104v-112.35h-35.104V251.758z M831.056,223.932c-1.522-1.663-2.283-4.604-2.283-8.829v-51.398h18.485
			v-24.297h-18.485v-27.934c0,0-0.105-18.067-18.224-18.067c-17.637,0-16.775,18.067-16.775,18.067v27.934h-14.334v24.297h14.334
			v55.761c0,11.563,2.872,20.18,8.618,25.854c5.747,5.68,14.644,8.515,26.692,8.515c6.854,0,13.432-1.003,19.732-3.01V225.8
			c-2.355,0.412-5.263,0.624-8.724,0.624C835.591,226.424,832.579,225.592,831.056,223.932z M911.649,137.331
			c-11.217,0-20.91,2.406-29.081,7.217c-8.169,4.812-14.384,11.614-18.641,20.402c-4.258,8.792-6.389,18.935-6.389,30.424v2.91
			c0,16.477,5.332,29.854,15.994,40.135c10.662,10.277,24.615,15.416,41.855,15.416c9.207,0,17.811-1.778,25.809-5.347
			c7.995-3.562,14.175-8.36,18.537-14.38l-15.994-18.898c-6.231,7.753-14.888,11.627-25.964,11.627
			c-6.717,0-12.187-1.799-16.408-5.396c-4.225-3.601-6.959-8.551-8.205-14.852h69.583v-13.602c0-17.513-4.57-31.167-13.709-40.964
			C939.898,142.227,927.436,137.331,911.649,137.331z M928.474,184.679h-35.311c1.938-13.568,8.03-20.351,18.278-20.351
			c5.538,0,9.797,1.538,12.774,4.62c2.977,3.08,4.396,7.424,4.258,13.031V184.679z M1035.758,222.839
			c-2.702,2.667-6.511,3.997-11.425,3.997c-5.885,0-10.177-2.178-12.879-6.541c-2.699-4.36-4.05-12.183-4.05-23.467
			c0-6.436,0.241-11.489,0.727-15.159c1.521-11.562,6.818-17.341,15.89-17.341c4.778,0,8.585,1.555,11.425,4.671
			c2.839,3.115,4.258,7.581,4.258,13.396h32.818c0-13.846-4.294-24.817-12.879-32.916c-8.584-8.1-20.182-12.149-34.79-12.149
			c-10.803,0-20.149,2.337-28.043,7.009c-7.891,4.672-13.933,11.354-18.121,20.039c-4.189,8.689-6.284,18.71-6.284,30.061v1.456
			c0,18.139,4.708,32.328,14.125,42.572c9.414,10.245,22.293,15.367,38.635,15.367c13.915,0,25.289-3.944,34.116-11.835
			c8.828-7.892,13.241-17.998,13.241-30.322h-32.818C1039.772,216.454,1038.457,220.176,1035.758,222.839z"/>
	</g>
</g>
</svg>
